<svg width="1360" height="1224" viewBox="0 0 1360 1224" fill="none" xmlns="http://www.w3.org/2000/svg">
<path fill-rule="evenodd" clip-rule="evenodd" d="M369 4.00003C369 4.00003 1224 -2.49997 1275.5 4.00003C1327 10.5 1350.5 72 1350.5 72C1350.5 72 1370.5 105.5 1350.5 161.5C1330.5 217.5 1174.5 476.5 1174.5 476.5H833L1002 773.5L902.5 942.5L369 4.00003ZM1148 181.5H664L730.5 302.5H1075L1148 181.5Z" fill="#7878FC" stroke="black"/>
<path d="M118 12.5C170 59 677.501 990 677.501 990L777.501 817L876.001 977C876.001 977 806 1110.5 777.501 1163C749.001 1215.5 690.501 1222.5 690.501 1222.5C690.501 1222.5 623.501 1228 592.001 1183.5C560.5 1139 17.0003 211.5 6.50033 159.5C-3.99967 107.5 4.50065 94 6.50033 85C8.50002 76 66.0003 -34 118 12.5Z" fill="#FFFCFC" stroke="black"/>
</svg>
